<?xml version="1.0" standalone="no"?>
<!DOCTYPE svg PUBLIC "-//W3C//DTD SVG 20010904//EN"
 "http://www.w3.org/TR/2001/REC-SVG-20010904/DTD/svg10.dtd">
<svg version="1.0" xmlns="http://www.w3.org/2000/svg"
 width="127.000000pt" height="127.000000pt" viewBox="0 0 127.000000 127.000000"
 preserveAspectRatio="xMidYMid meet">
<metadata>
Created by potrace 1.14, written by Peter Selinger 2001-2017
</metadata>
<g transform="translate(0.000000,127.000000) scale(0.100000,-0.100000)"
fill="#000000" stroke="none">
<path d="M870 1251 c0 -11 15 -28 37 -41 41 -24 42 -22 -21 -63 -10 -7 -17
-20 -15 -30 3 -15 12 -12 62 18 37 22 71 35 93 35 24 0 34 5 34 15 0 10 -10
15 -32 15 -20 0 -56 14 -91 35 -32 19 -60 35 -63 35 -2 0 -4 -9 -4 -19z"/>
<path d="M1147 1204 c-4 -4 -7 -49 -7 -101 l0 -93 50 0 51 0 -3 98 -3 97 -40
3 c-23 2 -44 0 -48 -4z"/>
<path d="M955 1077 l-88 -43 92 -42 c51 -23 94 -42 96 -42 12 0 3 39 -10 44
-9 3 -15 19 -15 41 0 22 6 38 15 41 15 6 21 44 7 44 -5 0 -48 -19 -97 -43z
m45 -42 c0 -23 -2 -24 -26 -13 l-25 12 23 13 c13 7 24 12 26 13 1 0 2 -11 2
-25z"/>
<path d="M872 940 c2 -18 15 -27 53 -40 l50 -18 -49 -21 c-27 -12 -46 -25 -42
-29 4 -4 26 -14 49 -24 36 -14 39 -17 22 -24 -67 -24 -85 -35 -85 -48 0 -9 3
-16 8 -16 15 0 182 65 182 71 0 3 -23 15 -52 26 l-52 20 52 18 c29 11 52 22
52 26 0 4 -35 21 -77 37 -43 17 -86 33 -96 37 -15 6 -18 4 -15 -15z"/>
<path d="M1140 880 l0 -70 50 0 50 0 0 70 0 70 -50 0 -50 0 0 -70z"/>
<path d="M728 742 c-43 -8 -78 -18 -78 -22 0 -3 27 -19 61 -36 l61 -30 -61
-29 c-34 -16 -61 -31 -61 -35 0 -9 179 -44 186 -37 15 15 -8 35 -48 41 l-43 7
48 26 47 27 -45 26 -46 27 43 9 c28 6 44 15 46 27 4 20 -4 20 -110 -1z"/>
<path d="M1140 649 l0 -100 48 3 47 3 3 98 3 97 -51 0 -50 0 0 -101z"/>
<path d="M890 663 c-15 -20 -20 -38 -18 -67 l3 -41 93 -3 c87 -3 92 -2 92 18
0 16 -6 20 -30 20 -19 0 -30 5 -30 14 0 8 14 23 30 33 17 9 30 25 30 35 0 22
-5 22 -41 1 -26 -16 -29 -16 -47 0 -27 25 -58 21 -82 -10z m68 -46 c3 -23 0
-27 -22 -27 -21 0 -26 5 -26 23 0 13 3 27 7 31 15 14 38 0 41 -27z"/>
<path d="M17 499 c-11 -6 -17 -22 -17 -43 0 -34 4 -37 74 -65 24 -10 26 -14
15 -27 -12 -15 -34 -15 -72 1 -13 5 -17 2 -17 -13 0 -23 18 -32 65 -32 43 0
67 24 63 64 -3 26 -9 33 -48 47 -24 9 -46 21 -48 28 -6 17 27 25 54 12 20 -9
26 -8 31 5 3 9 0 20 -8 25 -19 12 -70 11 -92 -2z"/>
<path d="M170 415 l0 -95 55 0 c42 0 55 3 55 15 0 10 -11 15 -35 15 -31 0 -35
3 -35 25 0 22 4 25 35 25 24 0 35 5 35 15 0 10 -11 15 -35 15 -31 0 -35 3 -35
25 0 22 4 25 35 25 24 0 35 5 35 15 0 12 -13 15 -55 15 l-55 0 0 -95z"/>
<path d="M350 424 c-22 -48 -40 -91 -40 -95 0 -5 9 -9 20 -9 11 0 20 7 20 15
0 11 12 15 45 15 33 0 45 -4 45 -15 0 -8 9 -15 20 -15 11 0 20 4 20 9 0 11
-80 181 -85 181 -2 0 -22 -39 -45 -86z m60 -21 c0 -7 -7 -13 -15 -13 -16 0
-19 9 -9 35 5 13 8 14 15 3 5 -7 9 -19 9 -25z"/>
<path d="M510 415 c0 -88 1 -95 20 -95 17 0 20 7 20 40 0 38 2 40 30 40 20 0
30 5 30 15 0 10 -10 15 -30 15 -25 0 -30 4 -30 25 0 22 4 25 35 25 24 0 35 5
35 15 0 12 -13 15 -55 15 l-55 0 0 -95z"/>
<path d="M673 486 c-23 -20 -28 -32 -28 -71 0 -39 5 -51 28 -71 64 -55 167
-11 167 71 0 82 -103 126 -167 71z m107 -26 c11 -11 20 -31 20 -45 0 -30 -32
-65 -60 -65 -28 0 -60 35 -60 65 0 30 32 65 60 65 11 0 29 -9 40 -20z"/>
<path d="M899 481 c-61 -62 -19 -161 70 -161 55 0 90 32 98 87 5 37 2 45 -25
73 -42 42 -101 42 -143 1z m111 -21 c11 -11 20 -31 20 -45 0 -30 -32 -65 -60
-65 -53 0 -81 84 -38 114 30 21 54 20 78 -4z"/>
<path d="M1110 416 l0 -96 49 0 c73 0 101 26 101 94 0 68 -20 88 -95 94 l-55
4 0 -96z m107 42 c17 -14 17 -72 0 -86 -7 -6 -26 -12 -42 -14 -29 -3 -30 -2
-33 46 -4 67 2 80 36 71 15 -4 33 -11 39 -17z"/>
<path d="M795 270 c-26 -17 -31 -18 -45 -5 -22 20 -65 19 -84 -1 -10 -10 -16
-33 -16 -65 l0 -49 95 0 c78 0 95 3 95 15 0 10 -11 15 -35 15 -25 0 -35 4 -35
15 0 9 16 25 35 36 20 12 35 29 35 40 0 23 -7 23 -45 -1z m-61 -46 c13 -33 6
-44 -24 -44 -25 0 -30 4 -30 23 0 13 3 27 7 30 12 13 41 7 47 -9z"/>
<path d="M877 273 c-4 -3 -7 -12 -7 -20 0 -9 16 -13 57 -13 l57 0 -59 -60 -59
-60 97 0 c90 0 97 1 97 20 0 17 -7 20 -52 20 l-52 0 52 53 c29 29 52 56 52 60
0 9 -174 9 -183 0z"/>
<path d="M650 60 l0 -50 95 0 c78 0 95 3 95 15 0 11 -11 15 -40 15 -39 0 -40
1 -40 35 0 46 -27 49 -32 3 -2 -25 -8 -34 -25 -36 -20 -3 -23 1 -23 32 0 25
-4 36 -15 36 -11 0 -15 -12 -15 -50z"/>
</g>
</svg>
